<mxfile host="app.diagrams.net" modified="2022-09-26T10:32:30.333Z" agent="5.0 (Windows NT 10.0; Win64; x64) AppleWebKit/537.36 (KHTML, like Gecko) Chrome/103.0.0.0 Safari/537.36" etag="VUfeDZC7IBGSdRJJGWE0" version="20.2.3" type="github">
  <diagram id="uSA5nbiWoQ3gf8vRUKfE" name="第 1 页">
    <mxGraphModel dx="422" dy="690" grid="1" gridSize="10" guides="1" tooltips="1" connect="1" arrows="1" fold="1" page="1" pageScale="1" pageWidth="827" pageHeight="1169" math="0" shadow="0">
      <root>
        <mxCell id="0" />
        <mxCell id="1" parent="0" />
        <mxCell id="IXz55kEoniHL7-7A8wtq-1" value="应用" style="rounded=1;whiteSpace=wrap;html=1;fillColor=#f5f5f5;fontColor=#333333;strokeColor=#666666;" vertex="1" parent="1">
          <mxGeometry x="279" y="160" width="270" height="40" as="geometry" />
        </mxCell>
        <mxCell id="IXz55kEoniHL7-7A8wtq-2" value="算法" style="rounded=1;whiteSpace=wrap;html=1;fillColor=#d5e8d4;strokeColor=#82b366;" vertex="1" parent="1">
          <mxGeometry x="279" y="200" width="270" height="40" as="geometry" />
        </mxCell>
        <mxCell id="IXz55kEoniHL7-7A8wtq-3" value="编程语言" style="rounded=1;whiteSpace=wrap;html=1;fillColor=#d5e8d4;strokeColor=#82b366;" vertex="1" parent="1">
          <mxGeometry x="279" y="240" width="270" height="40" as="geometry" />
        </mxCell>
        <mxCell id="IXz55kEoniHL7-7A8wtq-4" value="操作系统/虚拟机" style="rounded=1;whiteSpace=wrap;html=1;fillColor=#60a917;strokeColor=#2D7600;fontColor=#ffffff;" vertex="1" parent="1">
          <mxGeometry x="279" y="280" width="270" height="40" as="geometry" />
        </mxCell>
        <mxCell id="IXz55kEoniHL7-7A8wtq-5" value="指令集架构（ISA）" style="rounded=1;whiteSpace=wrap;html=1;fillColor=#d80073;strokeColor=#A50040;fontColor=#ffffff;" vertex="1" parent="1">
          <mxGeometry x="279" y="320" width="270" height="40" as="geometry" />
        </mxCell>
        <mxCell id="IXz55kEoniHL7-7A8wtq-6" value="微体系结构" style="rounded=1;whiteSpace=wrap;html=1;fillColor=#fad7ac;strokeColor=#b46504;" vertex="1" parent="1">
          <mxGeometry x="279" y="360" width="270" height="40" as="geometry" />
        </mxCell>
        <mxCell id="IXz55kEoniHL7-7A8wtq-8" value="电路" style="rounded=1;whiteSpace=wrap;html=1;fillColor=#fad7ac;strokeColor=#b46504;" vertex="1" parent="1">
          <mxGeometry x="279" y="440" width="270" height="40" as="geometry" />
        </mxCell>
        <mxCell id="IXz55kEoniHL7-7A8wtq-9" value="功能部件" style="rounded=1;whiteSpace=wrap;html=1;fillColor=#fad7ac;strokeColor=#b46504;" vertex="1" parent="1">
          <mxGeometry x="279" y="400" width="270" height="40" as="geometry" />
        </mxCell>
        <mxCell id="IXz55kEoniHL7-7A8wtq-10" value="器件" style="rounded=1;whiteSpace=wrap;html=1;fillColor=#fad7ac;strokeColor=#b46504;" vertex="1" parent="1">
          <mxGeometry x="279" y="480" width="270" height="40" as="geometry" />
        </mxCell>
      </root>
    </mxGraphModel>
  </diagram>
</mxfile>
